<svg width="27" height="25" viewBox="0 0 27 25" fill="none" xmlns="http://www.w3.org/2000/svg">
<path fill-rule="evenodd" clip-rule="evenodd" d="M7.93595 2.88462H18.8052C19.5129 2.88467 20.1959 3.1449 20.7243 3.6158C21.2526 4.08669 21.5894 4.73539 21.6706 5.43846L23.2244 18.9C23.271 19.304 23.2317 19.7133 23.109 20.1011C22.9863 20.4889 22.783 20.8463 22.5124 21.1499C22.2418 21.4536 21.9101 21.6965 21.539 21.8629C21.1678 22.0293 20.7657 22.1154 20.359 22.1154H6.3821C5.9754 22.1154 5.57329 22.0293 5.20217 21.8629C4.83106 21.6965 4.49932 21.4536 4.22874 21.1499C3.95815 20.8463 3.75483 20.4889 3.63212 20.1011C3.50941 19.7133 3.47008 19.304 3.51672 18.9L5.07057 5.43846C5.15172 4.73539 5.48851 4.08669 6.01685 3.6158C6.54519 3.1449 7.22821 2.88467 7.93595 2.88462ZM2.20518 5.10769C2.36749 3.70156 3.04107 2.40416 4.09775 1.46236C5.15444 0.520564 6.52048 0.000100062 7.93595 0H18.8052C20.2207 0.000100062 21.5867 0.520564 22.6434 1.46236C23.7001 2.40416 24.3736 3.70156 24.536 5.10769L26.0898 18.5692C26.1831 19.3773 26.1044 20.1959 25.859 20.9714C25.6136 21.7469 25.2069 22.4618 24.6658 23.0691C24.1246 23.6763 23.4611 24.1623 22.7189 24.4951C21.9767 24.8279 21.1724 24.9999 20.359 25H6.3821C5.56869 24.9999 4.76447 24.8279 4.02224 24.4951C3.28001 24.1623 2.61654 23.6763 2.07537 23.0691C1.5342 22.4618 1.12756 21.7469 0.88214 20.9714C0.636719 20.1959 0.558064 19.3773 0.651335 18.5692L2.20518 5.10769ZM7.60134 7.21154C7.60134 6.82901 7.75329 6.46216 8.02378 6.19167C8.29426 5.92119 8.66112 5.76923 9.04364 5.76923C9.42617 5.76923 9.79302 5.92119 10.0635 6.19167C10.334 6.46216 10.486 6.82901 10.486 7.21154V7.69231C10.486 8.45735 10.7899 9.19107 11.3308 9.73204C11.8718 10.273 12.6055 10.5769 13.3706 10.5769C14.1356 10.5769 14.8693 10.273 15.4103 9.73204C15.9513 9.19107 16.2552 8.45735 16.2552 7.69231V7.21154C16.2552 6.82901 16.4071 6.46216 16.6776 6.19167C16.9481 5.92119 17.315 5.76923 17.6975 5.76923C18.08 5.76923 18.4469 5.92119 18.7174 6.19167C18.9878 6.46216 19.1398 6.82901 19.1398 7.21154V7.69231C19.1398 9.2224 18.532 10.6898 17.45 11.7718C16.3681 12.8537 14.9007 13.4615 13.3706 13.4615C11.8405 13.4615 10.373 12.8537 9.2911 11.7718C8.20916 10.6898 7.60134 9.2224 7.60134 7.69231V7.21154Z" fill="#130B0B"/>
</svg>
