<svg width="25" height="28" viewBox="0 0 25 28" fill="none" xmlns="http://www.w3.org/2000/svg">
<path fill-rule="evenodd" clip-rule="evenodd" d="M14.0606 2.8125H10.3106C10.062 2.8125 9.82353 2.91127 9.64771 3.08709C9.4719 3.2629 9.37312 3.50136 9.37312 3.75V4.6875H14.9981V3.75C14.9981 3.50136 14.8994 3.2629 14.7235 3.08709C14.5477 2.91127 14.3093 2.8125 14.0606 2.8125ZM17.8106 4.6875V3.75C17.8106 2.75544 17.4155 1.80161 16.7123 1.09835C16.009 0.395088 15.0552 0 14.0606 0H10.3106C9.31606 0 8.36224 0.395088 7.65897 1.09835C6.95571 1.80161 6.56062 2.75544 6.56062 3.75V4.6875H1.40625C1.03329 4.6875 0.675604 4.83566 0.411881 5.09938C0.148158 5.3631 0 5.72079 0 6.09375C0 6.46671 0.148158 6.8244 0.411881 7.08812C0.675604 7.35184 1.03329 7.5 1.40625 7.5H1.99125L2.58562 21.7969C2.6461 23.2471 3.26482 24.6178 4.31242 25.6224C5.36002 26.627 6.75541 27.1878 8.20687 27.1875H16.1662C17.6174 27.1873 19.0123 26.6263 20.0595 25.6217C21.1067 24.6172 21.7252 23.2468 21.7856 21.7969L22.3819 7.5H22.9669C23.3398 7.5 23.6975 7.35184 23.9612 7.08812C24.225 6.8244 24.3731 6.46671 24.3731 6.09375C24.3731 5.72079 24.225 5.3631 23.9612 5.09938C23.6975 4.83566 23.3398 4.6875 22.9669 4.6875H17.8106ZM19.5656 7.5H4.80562L5.39625 21.6788C5.42625 22.404 5.73551 23.0896 6.25933 23.5921C6.78316 24.0946 7.48099 24.3751 8.20687 24.375H16.1662C16.8918 24.3747 17.5892 24.0939 18.1126 23.5915C18.636 23.089 18.945 22.4037 18.975 21.6788L19.5656 7.5ZM7.96687 11.25V20.625C7.96687 20.998 8.11503 21.3556 8.37876 21.6194C8.64248 21.8831 9.00016 22.0312 9.37312 22.0312C9.74608 22.0312 10.1038 21.8831 10.3675 21.6194C10.6312 21.3556 10.7794 20.998 10.7794 20.625V11.25C10.7794 10.877 10.6312 10.5194 10.3675 10.2556C10.1038 9.99191 9.74608 9.84375 9.37312 9.84375C9.00016 9.84375 8.64248 9.99191 8.37876 10.2556C8.11503 10.5194 7.96687 10.877 7.96687 11.25ZM14.9981 9.84375C15.3711 9.84375 15.7288 9.99191 15.9925 10.2556C16.2562 10.5194 16.4044 10.877 16.4044 11.25V20.625C16.4044 20.998 16.2562 21.3556 15.9925 21.6194C15.7288 21.8831 15.3711 22.0312 14.9981 22.0312C14.6252 22.0312 14.2675 21.8831 14.0038 21.6194C13.74 21.3556 13.5919 20.998 13.5919 20.625V11.25C13.5919 10.877 13.74 10.5194 14.0038 10.2556C14.2675 9.99191 14.6252 9.84375 14.9981 9.84375Z" fill="#EC5027"/>
</svg>
