<svg width="36" height="36" viewBox="0 0 36 36" fill="none" xmlns="http://www.w3.org/2000/svg">
<path fill-rule="evenodd" clip-rule="evenodd" d="M26.53 11.3029C26.8229 11.5958 26.8229 12.0707 26.53 12.3636L14.8633 24.0302C14.7227 24.1709 14.5319 24.2499 14.333 24.2499C14.1341 24.2499 13.9433 24.1709 13.8027 24.0302L8.80268 19.0302C8.50978 18.7374 8.50978 18.2625 8.80268 17.9696C9.09557 17.6767 9.57044 17.6767 9.86334 17.9696L14.333 22.4393L25.4693 11.3029C25.7622 11.01 26.2371 11.01 26.53 11.3029Z" fill="#EC5027"/>
<path fill-rule="evenodd" clip-rule="evenodd" d="M0.25 17.6667C0.25 8.04745 8.04745 0.25 17.6667 0.25C27.2859 0.25 35.0833 8.04745 35.0833 17.6667C35.0833 27.2859 27.2859 35.0833 17.6667 35.0833C8.04745 35.0833 0.25 27.2859 0.25 17.6667ZM17.6667 1.75C8.87588 1.75 1.75 8.87588 1.75 17.6667C1.75 26.4575 8.87588 33.5833 17.6667 33.5833C26.4575 33.5833 33.5833 26.4575 33.5833 17.6667C33.5833 8.87588 26.4575 1.75 17.6667 1.75Z" fill="#EC5027"/>
</svg>
