<svg width="29" height="25" viewBox="0 0 29 25" fill="none" xmlns="http://www.w3.org/2000/svg">
<path fill-rule="evenodd" clip-rule="evenodd" d="M2.1787 2.49407C3.64399 0.884558 5.73617 0 8.19178 0C10.4301 0 12.8203 1.05762 14.4221 3.12672C16.0143 1.05955 18.395 0 20.6525 0C23.1023 0 25.1907 0.880712 26.6598 2.48638C28.1136 4.07858 28.8443 6.25921 28.8443 8.67828C28.8443 12.8434 26.704 16.1951 23.9946 18.8007C21.2928 21.4005 17.8988 23.3831 15.0856 24.8388C14.8795 24.9454 14.6508 25.0007 14.4188 25C14.1868 24.9993 13.9584 24.9427 13.753 24.8349C10.9397 23.3639 7.54566 21.3967 4.84392 18.8103C2.13448 16.2124 0 12.8722 0 8.68021C0 6.2669 0.726876 4.08627 2.1787 2.49407ZM4.31126 4.43625C3.43632 5.39773 2.88443 6.83417 2.88443 8.68021C2.88443 11.8031 4.45356 14.4414 6.83994 16.7258C9.04364 18.8372 11.8396 20.5429 14.426 21.9274C16.9931 20.5621 19.791 18.843 21.9966 16.722C24.3869 14.4202 25.9599 11.7704 25.9599 8.68021C25.9599 6.8284 25.406 5.39196 24.5292 4.43048C23.6677 3.49016 22.3832 2.88635 20.6525 2.88635C18.7757 2.88635 16.6278 4.09396 15.7932 6.63611C15.6988 6.92535 15.5154 7.17734 15.2691 7.35602C15.0229 7.5347 14.7264 7.63093 14.4221 7.63093C14.1179 7.63093 13.8214 7.5347 13.5752 7.35602C13.3289 7.17734 13.1455 6.92535 13.0511 6.63611C12.2184 4.09781 10.0474 2.88635 8.19178 2.88635C6.45535 2.88635 5.17274 3.49016 4.31126 4.43625Z" fill="#EC5027"/>
<path d="M4.31126 4.43625C3.43632 5.39773 2.88443 6.83417 2.88443 8.68021C2.88443 11.8031 4.45356 14.4414 6.83994 16.7258C9.04364 18.8372 11.8396 20.5429 14.426 21.9274C16.9931 20.5621 19.791 18.843 21.9966 16.722C24.3869 14.4202 25.9599 11.7704 25.9599 8.68021C25.9599 6.8284 25.406 5.39196 24.5292 4.43048C23.6677 3.49016 22.3832 2.88635 20.6525 2.88635C18.7757 2.88635 16.6278 4.09396 15.7932 6.63611C15.6988 6.92535 15.5154 7.17734 15.2691 7.35602C15.0229 7.5347 14.7264 7.63093 14.4221 7.63093C14.1179 7.63093 13.8214 7.5347 13.5752 7.35602C13.3289 7.17734 13.1455 6.92535 13.0511 6.63611C12.2184 4.09781 10.0474 2.88635 8.19178 2.88635C6.45535 2.88635 5.17274 3.49016 4.31126 4.43625Z" fill="#EC5027"/>
</svg>
