<svg width="26" height="25" viewBox="0 0 26 25" fill="none" xmlns="http://www.w3.org/2000/svg">
<path fill-rule="evenodd" clip-rule="evenodd" d="M16.6891 6.25C16.6891 7.1972 16.3128 8.10561 15.6431 8.77538C14.9733 9.44515 14.0649 9.82143 13.1177 9.82143C12.1705 9.82143 11.2621 9.44515 10.5923 8.77538C9.92252 8.10561 9.54625 7.1972 9.54625 6.25C9.54625 5.3028 9.92252 4.39439 10.5923 3.72462C11.2621 3.05485 12.1705 2.67857 13.1177 2.67857C14.0649 2.67857 14.9733 3.05485 15.6431 3.72462C16.3128 4.39439 16.6891 5.3028 16.6891 6.25ZM19.3677 6.25C19.3677 7.9076 18.7092 9.49731 17.5371 10.6694C16.365 11.8415 14.7753 12.5 13.1177 12.5C11.4601 12.5 9.87036 11.8415 8.69826 10.6694C7.52616 9.49731 6.86768 7.9076 6.86768 6.25C6.86768 4.5924 7.52616 3.00268 8.69826 1.83058C9.87036 0.65848 11.4601 0 13.1177 0C14.7753 0 16.365 0.65848 17.5371 1.83058C18.7092 3.00268 19.3677 4.5924 19.3677 6.25ZM3.29625 20.5357C3.29625 20.1714 3.6891 19.0911 5.65339 17.9304C7.47125 16.8571 10.1177 16.0714 13.1177 16.0714C16.1177 16.0714 18.7641 16.8571 20.582 17.9304C22.5462 19.0911 22.9391 20.1714 22.9391 20.5357C22.9391 21.0093 22.751 21.4635 22.4161 21.7984C22.0812 22.1333 21.627 22.3214 21.1534 22.3214H5.08196C4.60836 22.3214 4.15416 22.1333 3.81927 21.7984C3.48438 21.4635 3.29625 21.0093 3.29625 20.5357ZM13.1177 13.3929C6.24268 13.3929 0.617676 16.9643 0.617676 20.5357C0.617676 21.7197 1.08802 22.8552 1.92523 23.6924C2.76245 24.5297 3.89796 25 5.08196 25H21.1534C22.3374 25 23.4729 24.5297 24.3101 23.6924C25.1473 22.8552 25.6177 21.7197 25.6177 20.5357C25.6177 16.9643 19.9927 13.3929 13.1177 13.3929Z" fill="#130B0B"/>
</svg>
