<svg width="53" height="53" viewBox="0 0 53 53" fill="none" xmlns="http://www.w3.org/2000/svg">
<path d="M18.75 22.5C20.8211 22.5 22.5 20.8211 22.5 18.75C22.5 16.6789 20.8211 15 18.75 15C16.6789 15 15 16.6789 15 18.75C15 20.8211 16.6789 22.5 18.75 22.5Z" fill="#EC5027"/>
<path d="M33.75 22.5C35.8211 22.5 37.5 20.8211 37.5 18.75C37.5 16.6789 35.8211 15 33.75 15C31.6789 15 30 16.6789 30 18.75C30 20.8211 31.6789 22.5 33.75 22.5Z" fill="#EC5027"/>
<path d="M26.25 52.5C11.775 52.5 0 40.725 0 26.25C0 11.775 11.775 0 26.25 0C40.725 0 52.5 11.775 52.5 26.25C52.5 40.725 40.725 52.5 26.25 52.5ZM26.25 3.75C13.8375 3.75 3.75 13.8375 3.75 26.25C3.75 38.6625 13.8375 48.75 26.25 48.75C38.6625 48.75 48.75 38.6625 48.75 26.25C48.75 13.8375 38.6625 3.75 26.25 3.75Z" fill="#EC5027"/>
<path d="M36.8625 39.375C36.075 39.375 35.3625 38.8875 35.1 38.1375C34.4549 36.3054 33.2572 34.7186 31.672 33.5962C30.0868 32.4737 28.1923 31.8709 26.25 31.8709C24.3076 31.8709 22.4132 32.4737 20.828 33.5962C19.2428 34.7186 18.045 36.3054 17.4 38.1375C17.0625 39.1125 15.975 39.6375 15 39.2625C14.7665 39.1817 14.5515 39.0549 14.3679 38.8896C14.1842 38.7243 14.0355 38.5238 13.9306 38.3001C13.8258 38.0763 13.7668 37.8338 13.7572 37.5869C13.7477 37.34 13.7877 37.0937 13.875 36.8625C15.7125 31.6125 20.7 28.125 26.25 28.125C31.8 28.125 36.7875 31.65 38.625 36.8625C38.7264 37.1456 38.7584 37.4489 38.7183 37.7469C38.6782 38.045 38.5671 38.329 38.3944 38.5752C38.2217 38.8214 37.9924 39.0225 37.7259 39.1617C37.4593 39.3009 37.1632 39.374 36.8625 39.375Z" fill="#EC5027"/>
</svg>
