<svg width="25" height="25" viewBox="0 0 25 25" fill="none" xmlns="http://www.w3.org/2000/svg">
<path fill-rule="evenodd" clip-rule="evenodd" d="M19.0647 10.8937C19.0647 11.9667 18.8534 13.0292 18.4427 14.0206C18.0321 15.0119 17.4302 15.9127 16.6715 16.6715C15.9127 17.4302 15.0119 18.0321 14.0206 18.4427C13.0292 18.8534 11.9667 19.0647 10.8937 19.0647C9.82062 19.0647 8.75809 18.8534 7.76674 18.4427C6.77538 18.0321 5.87461 17.4302 5.11586 16.6715C4.3571 15.9127 3.75523 15.0119 3.3446 14.0206C2.93396 13.0292 2.72261 11.9667 2.72261 10.8937C2.72261 8.72656 3.58349 6.64823 5.11586 5.11586C6.64823 3.58349 8.72656 2.72261 10.8937 2.72261C13.0608 2.72261 15.1391 3.58349 16.6715 5.11586C18.2038 6.64823 19.0647 8.72656 19.0647 10.8937ZM17.5758 19.5005C15.3866 21.2 12.632 22.0014 9.87283 21.7414C7.11361 21.4815 4.55718 20.1798 2.72397 18.1013C0.89076 16.0228 -0.0814203 13.3237 0.00534563 10.5537C0.0921115 7.78358 1.2313 5.1507 3.191 3.191C5.1507 1.2313 7.78358 0.0921115 10.5537 0.00534563C13.3237 -0.0814203 16.0228 0.89076 18.1013 2.72397C20.1798 4.55718 21.4815 7.11361 21.7414 9.87283C22.0014 12.632 21.2 15.3866 19.5005 17.5758L24.5666 22.6418C24.7004 22.7665 24.8077 22.9168 24.8821 23.0839C24.9565 23.2509 24.9966 23.4313 24.9998 23.6141C25.003 23.797 24.9694 23.9786 24.9009 24.1482C24.8324 24.3178 24.7304 24.4718 24.6011 24.6011C24.4718 24.7304 24.3178 24.8324 24.1482 24.9009C23.9786 24.9694 23.797 25.003 23.6141 24.9998C23.4313 24.9966 23.2509 24.9565 23.0839 24.8821C22.9168 24.8077 22.7665 24.7004 22.6418 24.5666L17.5758 19.5005Z" fill="#130B0B"/>
</svg>
