<svg width="100" height="100" viewBox="0 0 100 100" fill="none" xmlns="http://www.w3.org/2000/svg">
<g id="gravity-ui:credit-card">
<path id="Vector" fill-rule="evenodd" clip-rule="evenodd" d="M78.125 25H21.875C19.3886 25 17.004 25.9877 15.2459 27.7459C13.4877 29.504 12.5 31.8886 12.5 34.375H87.5C87.5 31.8886 86.5123 29.504 84.7541 27.7459C82.996 25.9877 80.6114 25 78.125 25ZM12.5 65.625V43.75H87.5V65.625C87.5 68.1114 86.5123 70.496 84.7541 72.2541C82.996 74.0123 80.6114 75 78.125 75H21.875C19.3886 75 17.004 74.0123 15.2459 72.2541C13.4877 70.496 12.5 68.1114 12.5 65.625ZM21.875 15.625C16.9022 15.625 12.1331 17.6004 8.61675 21.1167C5.10044 24.6331 3.125 29.4022 3.125 34.375V65.625C3.125 70.5978 5.10044 75.3669 8.61675 78.8833C12.1331 82.3996 16.9022 84.375 21.875 84.375H78.125C83.0978 84.375 87.867 82.3996 91.3833 78.8833C94.8996 75.3669 96.875 70.5978 96.875 65.625V34.375C96.875 29.4022 94.8996 24.6331 91.3833 21.1167C87.867 17.6004 83.0978 15.625 78.125 15.625H21.875ZM26.5625 56.25C25.3193 56.25 24.127 56.7439 23.2479 57.6229C22.3689 58.502 21.875 59.6943 21.875 60.9375C21.875 62.1807 22.3689 63.373 23.2479 64.2521C24.127 65.1311 25.3193 65.625 26.5625 65.625H42.1875C43.4307 65.625 44.623 65.1311 45.5021 64.2521C46.3811 63.373 46.875 62.1807 46.875 60.9375C46.875 59.6943 46.3811 58.502 45.5021 57.6229C44.623 56.7439 43.4307 56.25 42.1875 56.25H26.5625Z" fill="#EC5027"/>
</g>
</svg>
