<svg width="100" height="100" viewBox="0 0 100 100" fill="none" xmlns="http://www.w3.org/2000/svg">
<g id="gravity-ui:globe">
<path id="Vector" fill-rule="evenodd" clip-rule="evenodd" d="M57.55 77.1625C54.5187 83.4125 51.5938 84.375 50 84.375C48.4062 84.375 45.4813 83.4125 42.45 77.1625C40.125 72.3625 38.4062 65.55 37.7688 57.2438C45.9047 58.0138 54.0953 58.0138 62.2312 57.2438C61.5938 65.55 59.875 72.3625 57.5437 77.1625H57.55ZM62.475 47.7938C58.4875 48.2125 54.3125 48.4375 50 48.4375C45.6875 48.4375 41.5125 48.2125 37.525 47.7938C37.7563 37.1937 39.6688 28.575 42.45 22.8375C45.4813 16.5875 48.4062 15.625 50 15.625C51.5938 15.625 54.5187 16.5875 57.55 22.8375C60.3312 28.575 62.2375 37.1937 62.475 47.7938ZM71.7125 55.9562C71.1813 65.4313 69.3687 73.7562 66.4875 80.1687C71.472 77.4442 75.7037 73.527 78.8044 68.7674C81.9051 64.0078 83.7782 58.5541 84.2562 52.8938C80.375 54.1375 76.1625 55.1688 71.7125 55.9562ZM83.7 43.1875C80.125 44.4625 76.1375 45.5562 71.8187 46.4C71.4688 35.9562 69.6062 26.775 66.4875 19.8313C70.8836 22.2369 74.7015 25.5733 77.6745 29.6075C80.6475 33.6416 82.7039 38.2762 83.7 43.1875ZM28.1812 46.4C28.5312 35.9562 30.3937 26.775 33.5125 19.8313C29.1164 22.2369 25.2985 25.5733 22.3255 29.6075C19.3525 33.6416 17.2961 38.2762 16.3 43.1875C19.875 44.4625 23.8625 45.5562 28.1812 46.4ZM15.75 52.8938C16.2281 58.5541 18.1011 64.0078 21.2019 68.7674C24.3026 73.527 28.5343 77.4442 33.5187 80.1687C30.6437 73.7562 28.8312 65.4313 28.2937 55.9562C24.0492 55.2149 19.8587 54.1918 15.75 52.8938ZM93.75 50C93.75 38.3968 89.1406 27.2688 80.9359 19.0641C72.7312 10.8594 61.6032 6.25 50 6.25C38.3968 6.25 27.2688 10.8594 19.0641 19.0641C10.8594 27.2688 6.25 38.3968 6.25 50C6.25 61.6032 10.8594 72.7312 19.0641 80.9359C27.2688 89.1406 38.3968 93.75 50 93.75C61.6032 93.75 72.7312 89.1406 80.9359 80.9359C89.1406 72.7312 93.75 61.6032 93.75 50Z" fill="#EC5027"/>
</g>
</svg>
