<svg width="100" height="100" viewBox="0 0 100 100" fill="none" xmlns="http://www.w3.org/2000/svg">
<g id="gravity-ui:arrows-3-rotate-left" clip-path="url(#clip0_59_514)">
<g id="Group">
<g id="Clip path group">
<mask id="mask0_59_514" style="mask-type:luminance" maskUnits="userSpaceOnUse" x="0" y="0" width="100" height="100">
<g id="gravityUiArrows3RotateLeft0">
<path id="Vector" d="M0 0H100V100H0V0Z" fill="white"/>
</g>
</mask>
<g mask="url(#mask0_59_514)">
<g id="Group_2">
<path id="Vector_2" fill-rule="evenodd" clip-rule="evenodd" d="M71.1876 15.6437C64.8439 11.6782 57.5248 9.5493 50.0438 9.49369C39.5603 9.38976 29.4449 13.3553 21.8251 20.5562L21.8563 17.0624C21.8671 15.8192 21.3836 14.6227 20.5121 13.736C19.6407 12.8493 18.4527 12.3451 17.2095 12.3343C16.5939 12.329 15.9833 12.4449 15.4125 12.6756C14.8418 12.9062 14.3221 13.247 13.883 13.6785C12.9963 14.55 12.4921 15.738 12.4813 16.9812L12.3438 32.6062C12.3339 33.8483 12.8173 35.0437 13.688 35.9296C14.5587 36.8155 15.7455 37.3196 16.9876 37.3312L32.5938 37.4687C33.2094 37.474 33.82 37.3581 34.3908 37.1274C34.9615 36.8968 35.4813 36.556 35.9203 36.1245C36.3594 35.693 36.7091 35.1792 36.9496 34.6126C37.1901 34.0459 37.3166 33.4374 37.322 32.8218C37.3273 32.2062 37.2113 31.5957 36.9807 31.0249C36.7501 30.4541 36.4093 29.9344 35.9778 29.4954C35.5463 29.0563 35.0325 28.7066 34.4658 28.4661C33.8992 28.2256 33.2907 28.099 32.6751 28.0937L27.5688 28.0499C30.4999 25.1026 33.9914 22.7718 37.8374 21.195C41.6834 19.6182 45.8061 18.8272 49.9626 18.8687C55.7163 18.9081 61.3461 20.5438 66.2251 23.5937C67.2793 24.2526 68.5521 24.4657 69.7635 24.1862C70.9749 23.9066 72.0256 23.1573 72.6845 22.1031C73.3434 21.0488 73.5565 19.776 73.2769 18.5647C72.9974 17.3533 72.2418 16.3026 71.1876 15.6437ZM14.3313 70.1187C10.6373 63.6122 8.81995 56.2087 9.08134 48.7312C9.10309 48.1156 9.24588 47.5104 9.50154 46.95C9.7572 46.3896 10.1207 45.885 10.5714 45.4651C11.022 45.0452 11.551 44.7182 12.128 44.5028C12.7051 44.2873 13.3189 44.1876 13.9345 44.2093C14.55 44.2311 15.1553 44.3739 15.7157 44.6295C16.2761 44.8852 16.7806 45.2487 17.2005 45.6994C17.6204 46.15 17.9474 46.679 18.1629 47.256C18.3784 47.833 18.4781 48.4469 18.4563 49.0624C18.2497 54.8102 19.6477 60.502 22.4938 65.4999C24.5354 69.1223 27.2816 72.2992 30.5706 74.8432C33.8596 77.3872 37.6247 79.2468 41.6438 80.3124L39.1251 75.8624C38.5134 74.78 38.3568 73.499 38.6897 72.3011C39.0226 71.1032 39.8177 70.0866 40.9001 69.4749C41.9825 68.8633 43.2636 68.7067 44.4615 69.0396C45.6593 69.3724 46.6759 70.1675 47.2876 71.2499L54.9688 84.8312C55.5811 85.9128 55.7387 87.1933 55.407 88.3912C55.0753 89.589 54.2815 90.606 53.2001 91.2187L39.6001 98.9062C39.0638 99.2238 38.4696 99.4313 37.8522 99.5165C37.2348 99.6018 36.6066 99.563 36.0044 99.4025C35.4021 99.2421 34.8379 98.9631 34.3448 98.582C33.8517 98.2009 33.4395 97.7252 33.1324 97.1829C32.8252 96.6405 32.6294 96.0424 32.5562 95.4235C32.483 94.8045 32.534 94.1772 32.7062 93.5782C32.8783 92.9792 33.1682 92.4205 33.5589 91.9349C33.9495 91.4493 34.4331 91.0464 34.9813 90.7499L38.0251 89.0312C27.9789 86.0308 19.4815 79.2513 14.3313 70.1187ZM84.6938 70.7374C80.9048 77.1892 75.4009 82.4638 68.7938 85.9749C67.6957 86.5584 66.4107 86.6818 65.2216 86.3178C64.0325 85.9539 63.0367 85.1325 62.4532 84.0343C61.8697 82.9362 61.7464 81.6512 62.1103 80.4621C62.4743 79.273 63.2957 78.2772 64.3938 77.6937C69.4725 74.9931 73.7023 70.9364 76.6126 65.9749C78.7279 62.3959 80.1053 58.4296 80.6635 54.3099C81.2217 50.1901 80.9493 46.0003 79.8626 41.9874L77.2688 46.3937C76.9583 46.9281 76.545 47.3958 76.053 47.7698C75.561 48.1439 74.9998 48.417 74.4018 48.5733C73.8038 48.7297 73.1808 48.7662 72.5686 48.6808C71.9564 48.5955 71.3672 48.3898 70.8348 48.0758C70.3024 47.7618 69.8374 47.3457 69.4665 46.8512C69.0955 46.3568 68.8261 45.7939 68.6736 45.1949C68.521 44.5959 68.4885 43.9727 68.5778 43.3611C68.6671 42.7495 68.8764 42.1616 69.1938 41.6312L77.1126 28.1937C77.4248 27.663 77.8385 27.199 78.3301 26.8282C78.8217 26.4574 79.3815 26.1871 79.9775 26.0327C80.5736 25.8783 81.1943 25.8428 81.804 25.9284C82.4138 26.0139 83.0008 26.2188 83.5313 26.5312L96.9938 34.4562C97.5245 34.7685 97.9884 35.1822 98.3591 35.6738C98.7298 36.1654 99.0001 36.7252 99.1545 37.3213C99.3088 37.9173 99.3443 38.5379 99.2588 39.1476C99.1734 39.7574 98.9686 40.3443 98.6563 40.8749C98.344 41.4056 97.9303 41.8695 97.4387 42.2402C96.9471 42.6109 96.3873 42.8812 95.7913 43.0356C95.1952 43.1899 94.5746 43.2254 93.9649 43.1399C93.3551 43.0545 92.7682 42.8497 92.2376 42.5374L89.2188 40.7624C91.6478 50.9631 90.0257 61.7083 84.6938 70.7374Z" fill="#EC5027"/>
</g>
</g>
</g>
</g>
</g>
<defs>
<clipPath id="clip0_59_514">
<rect width="100" height="100" fill="white"/>
</clipPath>
</defs>
</svg>
