<svg width="100" height="100" viewBox="0 0 100 100" fill="none" xmlns="http://www.w3.org/2000/svg">
<g id="gravity-ui:circle-check">
<path id="Vector" fill-rule="evenodd" clip-rule="evenodd" d="M84.375 50C84.375 59.1168 80.7534 67.8602 74.3068 74.3068C67.8602 80.7534 59.1168 84.375 50 84.375C40.8832 84.375 32.1398 80.7534 25.6932 74.3068C19.2466 67.8602 15.625 59.1168 15.625 50C15.625 40.8832 19.2466 32.1398 25.6932 25.6932C32.1398 19.2466 40.8832 15.625 50 15.625C59.1168 15.625 67.8602 19.2466 74.3068 25.6932C80.7534 32.1398 84.375 40.8832 84.375 50ZM93.75 50C93.75 61.6032 89.1406 72.7312 80.9359 80.9359C72.7312 89.1406 61.6032 93.75 50 93.75C38.3968 93.75 27.2688 89.1406 19.0641 80.9359C10.8594 72.7312 6.25 61.6032 6.25 50C6.25 38.3968 10.8594 27.2688 19.0641 19.0641C27.2688 10.8594 38.3968 6.25 50 6.25C61.6032 6.25 72.7312 10.8594 80.9359 19.0641C89.1406 27.2688 93.75 38.3968 93.75 50ZM69.375 40.3125C69.7443 39.82 70.0131 39.2597 70.1658 38.6633C70.3186 38.067 70.3524 37.4465 70.2654 36.8371C70.1783 36.2277 69.9721 35.6414 69.6585 35.1117C69.3448 34.5821 68.93 34.1193 68.4375 33.75C67.945 33.3807 67.3847 33.1119 66.7883 32.9592C66.192 32.8064 65.5715 32.7726 64.9621 32.8596C64.3527 32.9467 63.7664 33.1529 63.2367 33.4665C62.7071 33.7802 62.2443 34.195 61.875 34.6875L46.3688 55.3625L37.6875 46.6875C36.7989 45.8595 35.6236 45.4087 34.4092 45.4302C33.1949 45.4516 32.0362 45.9435 31.1774 46.8024C30.3185 47.6612 29.8266 48.8199 29.8052 50.0342C29.7837 51.2486 30.2345 52.4239 31.0625 53.3125L43.5625 65.8125C44.0372 66.2871 44.6084 66.6543 45.2373 66.8891C45.8662 67.1239 46.5382 67.2208 47.2078 67.1734C47.8774 67.126 48.5291 66.9353 49.1186 66.6143C49.7082 66.2932 50.2219 65.8493 50.625 65.3125L69.375 40.3125Z" fill="#EC5027"/>
</g>
</svg>
